v 0 0 0.15
v 1 0 0.15
v 0.9876883405951378 0.15643446504023087 0.15
v 0.9510565162951535 0.3090169943749474 0.15
v 0.8910065241883679 0.4539904997395468 0.15
v 0.8090169943749475 0.5877852522924731 0.15
v 0.7071067811865476 0.7071067811865475 0.15
v 0.5877852522924731 0.8090169943749475 0.15
v 0.45399049973954686 0.8910065241883678 0.15
v 0.30901699437494745 0.9510565162951535 0.15
v 0.15643446504023092 0.9876883405951378 0.15
v 6.123233995736766e-17 1 0.15
v -0.15643446504023104 0.9876883405951377 0.15
v -0.30901699437494734 0.9510565162951536 0.15
v -0.45399049973954675 0.8910065241883679 0.15
v -0.587785252292473 0.8090169943749475 0.15
v -0.7071067811865475 0.7071067811865476 0.15
v -0.8090169943749473 0.5877852522924732 0.15
v -0.8910065241883678 0.45399049973954686 0.15
v -0.9510565162951535 0.3090169943749475 0.15
v -0.9876883405951377 0.15643446504023098 0.15
v -1 1.2246467991473532e-16 0.15
v -0.9876883405951378 -0.15643446504023073 0.15
v -0.9510565162951535 -0.30901699437494773 0.15
v -0.8910065241883681 -0.45399049973954625 0.15
v -0.8090169943749475 -0.587785252292473 0.15
v -0.7071067811865477 -0.7071067811865475 0.15
v -0.5877852522924732 -0.8090169943749473 0.15
v -0.4539904997395469 -0.8910065241883678 0.15
v -0.30901699437494756 -0.9510565162951535 0.15
v -0.15643446504023104 -0.9876883405951377 0.15
v -1.8369701987210297e-16 -1 0.15
v 0.15643446504023067 -0.9876883405951378 0.15
v 0.30901699437494723 -0.9510565162951536 0.15
v 0.45399049973954664 -0.891006524188368 0.15
v 0.5877852522924729 -0.8090169943749476 0.15
v 0.7071067811865474 -0.7071067811865477 0.15
v 0.8090169943749473 -0.5877852522924734 0.15
v 0.8910065241883678 -0.45399049973954697 0.15
v 0.9510565162951535 -0.3090169943749476 0.15
v 0.9876883405951377 -0.15643446504023112 0.15
v 0 0 -0.15
v 1 0 -0.15
v 0.9876883405951378 0.15643446504023087 -0.15
v 0.9510565162951535 0.3090169943749474 -0.15
v 0.8910065241883679 0.4539904997395468 -0.15
v 0.8090169943749475 0.5877852522924731 -0.15
v 0.7071067811865476 0.7071067811865475 -0.15
v 0.5877852522924731 0.8090169943749475 -0.15
v 0.45399049973954686 0.8910065241883678 -0.15
v 0.30901699437494745 0.9510565162951535 -0.15
v 0.15643446504023092 0.9876883405951378 -0.15
v 6.123233995736766e-17 1 -0.15
v -0.15643446504023104 0.9876883405951377 -0.15
v -0.30901699437494734 0.9510565162951536 -0.15
v -0.45399049973954675 0.8910065241883679 -0.15
v -0.587785252292473 0.8090169943749475 -0.15
v -0.7071067811865475 0.7071067811865476 -0.15
v -0.8090169943749473 0.5877852522924732 -0.15
v -0.8910065241883678 0.45399049973954686 -0.15
v -0.9510565162951535 0.3090169943749475 -0.15
v -0.9876883405951377 0.15643446504023098 -0.15
v -1 1.2246467991473532e-16 -0.15
v -0.9876883405951378 -0.15643446504023073 -0.15
v -0.9510565162951535 -0.30901699437494773 -0.15
v -0.8910065241883681 -0.45399049973954625 -0.15
v -0.8090169943749475 -0.587785252292473 -0.15
v -0.7071067811865477 -0.7071067811865475 -0.15
v -0.5877852522924732 -0.8090169943749473 -0.15
v -0.4539904997395469 -0.8910065241883678 -0.15
v -0.30901699437494756 -0.9510565162951535 -0.15
v -0.15643446504023104 -0.9876883405951377 -0.15
v -1.8369701987210297e-16 -1 -0.15
v 0.15643446504023067 -0.9876883405951378 -0.15
v 0.30901699437494723 -0.9510565162951536 -0.15
v 0.45399049973954664 -0.891006524188368 -0.15
v 0.5877852522924729 -0.8090169943749476 -0.15
v 0.7071067811865474 -0.7071067811865477 -0.15
v 0.8090169943749473 -0.5877852522924734 -0.15
v 0.8910065241883678 -0.45399049973954697 -0.15
v 0.9510565162951535 -0.3090169943749476 -0.15
v 0.9876883405951377 -0.15643446504023112 -0.15
vn 0 0 1
f 1//1 2//1 3//1
vn 0 0 1
f 1//2 3//2 4//2
vn 0 0 1
f 1//3 4//3 5//3
vn 0 0 1
f 1//4 5//4 6//4
vn 0 0 1
f 1//5 6//5 7//5
vn 0 0 1
f 1//6 7//6 8//6
vn 0 0 1
f 1//7 8//7 9//7
vn 0 0 1
f 1//8 9//8 10//8
vn 0 0 1
f 1//9 10//9 11//9
vn 0 0 1
f 1//10 11//10 12//10
vn 0 0 1
f 1//11 12//11 13//11
vn 0 0 1
f 1//12 13//12 14//12
vn 0 0 1
f 1//13 14//13 15//13
vn 0 0 1
f 1//14 15//14 16//14
vn 0 0 1
f 1//15 16//15 17//15
vn 0 0 1
f 1//16 17//16 18//16
vn 0 0 1
f 1//17 18//17 19//17
vn 0 0 1
f 1//18 19//18 20//18
vn 0 0 1
f 1//19 20//19 21//19
vn 0 0 1
f 1//20 21//20 22//20
vn 0 0 1
f 1//21 22//21 23//21
vn 0 0 1
f 1//22 23//22 24//22
vn 0 0 1
f 1//23 24//23 25//23
vn 0 0 1
f 1//24 25//24 26//24
vn 0 0 1
f 1//25 26//25 27//25
vn 0 0 1
f 1//26 27//26 28//26
vn 0 0 1
f 1//27 28//27 29//27
vn 0 0 1
f 1//28 29//28 30//28
vn 0 0 1
f 1//29 30//29 31//29
vn 0 0 1
f 1//30 31//30 32//30
vn 0 0 1
f 1//31 32//31 33//31
vn 0 0 1
f 1//32 33//32 34//32
vn 0 0 1
f 1//33 34//33 35//33
vn 0 0 1
f 1//34 35//34 36//34
vn 0 0 1
f 1//35 36//35 37//35
vn 0 0 1
f 1//36 37//36 38//36
vn 0 0 1
f 1//37 38//37 39//37
vn 0 0 1
f 1//38 39//38 40//38
vn 0 0 1
f 1//39 40//39 41//39
vn 0 0 1
f 1//40 41//40 2//40
vn 0 0 -1
f 42//41 44//41 43//41
vn 0 0 -1
f 42//42 45//42 44//42
vn 0 0 -1
f 42//43 46//43 45//43
vn 0 0 -1
f 42//44 47//44 46//44
vn 0 0 -1
f 42//45 48//45 47//45
vn 0 0 -1
f 42//46 49//46 48//46
vn 0 0 -1
f 42//47 50//47 49//47
vn 0 0 -1
f 42//48 51//48 50//48
vn 0 0 -1
f 42//49 52//49 51//49
vn 0 0 -1
f 42//50 53//50 52//50
vn 0 0 -1
f 42//51 54//51 53//51
vn 0 0 -1
f 42//52 55//52 54//52
vn 0 0 -1
f 42//53 56//53 55//53
vn 0 0 -1
f 42//54 57//54 56//54
vn 0 0 -1
f 42//55 58//55 57//55
vn 0 0 -1
f 42//56 59//56 58//56
vn 0 0 -1
f 42//57 60//57 59//57
vn 0 0 -1
f 42//58 61//58 60//58
vn 0 0 -1
f 42//59 62//59 61//59
vn 0 0 -1
f 42//60 63//60 62//60
vn 0 0 -1
f 42//61 64//61 63//61
vn 0 0 -1
f 42//62 65//62 64//62
vn 0 0 -1
f 42//63 66//63 65//63
vn 0 0 -1
f 42//64 67//64 66//64
vn 0 0 -1
f 42//65 68//65 67//65
vn 0 0 -1
f 42//66 69//66 68//66
vn 0 0 -1
f 42//67 70//67 69//67
vn 0 0 -1
f 42//68 71//68 70//68
vn 0 0 -1
f 42//69 72//69 71//69
vn 0 0 -1
f 42//70 73//70 72//70
vn 0 0 -1
f 42//71 74//71 73//71
vn 0 0 -1
f 42//72 75//72 74//72
vn 0 0 -1
f 42//73 76//73 75//73
vn 0 0 -1
f 42//74 77//74 76//74
vn 0 0 -1
f 42//75 78//75 77//75
vn 0 0 -1
f 42//76 79//76 78//76
vn 0 0 -1
f 42//77 80//77 79//77
vn 0 0 -1
f 42//78 81//78 80//78
vn 0 0 -1
f 42//79 82//79 81//79
vn 0 0 -1
f 42//80 43//80 82//80
vn 0.996917333733128 0.07845909572784467 0
f 2//81 43//81 3//81
vn 0.996917333733128 0.07845909572784467 0
f 43//82 44//82 3//82
vn 0.9723699203976764 0.23344536385590597 0
f 3//83 44//83 4//83
vn 0.9723699203976764 0.23344536385590597 0
f 44//84 45//84 4//84
vn 0.9238795325112871 0.3826834323650893 0
f 4//85 45//85 5//85
vn 0.9238795325112871 0.3826834323650893 0
f 45//86 46//86 5//86
vn 0.8526401643540922 0.5224985647159489 0
f 5//87 46//87 6//87
vn 0.8526401643540922 0.5224985647159489 0
f 46//88 47//88 6//88
vn 0.7604059656000308 0.6494480483301838 0
f 6//89 47//89 7//89
vn 0.7604059656000308 0.6494480483301838 0
f 47//90 48//90 7//90
vn 0.6494480483301839 0.7604059656000307 0
f 7//91 48//91 8//91
vn 0.6494480483301839 0.7604059656000307 0
f 48//92 49//92 8//92
vn 0.5224985647159486 0.8526401643540924 0
f 8//93 49//93 9//93
vn 0.5224985647159486 0.8526401643540924 0
f 49//94 50//94 9//94
vn 0.3826834323650899 0.9238795325112867 0
f 9//95 50//95 10//95
vn 0.3826834323650899 0.9238795325112867 0
f 50//96 51//96 10//96
vn 0.23344536385590597 0.9723699203976764 0
f 10//97 51//97 11//97
vn 0.23344536385590597 0.9723699203976764 0
f 51//98 52//98 11//98
vn 0.07845909572784467 0.996917333733128 0
f 11//99 52//99 12//99
vn 0.07845909572784467 0.996917333733128 0
f 52//100 53//100 12//100
vn -0.07845909572784525 0.996917333733128 0
f 12//101 53//101 13//101
vn -0.07845909572784525 0.996917333733128 0
f 53//102 54//102 13//102
vn -0.23344536385590497 0.9723699203976768 0
f 13//103 54//103 14//103
vn -0.23344536385590497 0.9723699203976768 0
f 54//104 55//104 14//104
vn -0.3826834323650899 0.9238795325112867 0
f 14//105 55//105 15//105
vn -0.3826834323650899 0.9238795325112867 0
f 55//106 56//106 15//106
vn -0.5224985647159491 0.8526401643540921 0
f 15//107 56//107 16//107
vn -0.5224985647159491 0.8526401643540921 0
f 56//108 57//108 16//108
vn -0.6494480483301835 0.7604059656000312 0
f 16//109 57//109 17//109
vn -0.6494480483301835 0.7604059656000312 0
f 57//110 58//110 17//110
vn -0.7604059656000308 0.6494480483301838 0
f 17//111 58//111 18//111
vn -0.7604059656000308 0.6494480483301838 0
f 58//112 59//112 18//112
vn -0.8526401643540923 0.5224985647159488 0
f 18//113 59//113 19//113
vn -0.8526401643540923 0.5224985647159488 0
f 59//114 60//114 19//114
vn -0.9238795325112866 0.38268343236508995 0
f 19//115 60//115 20//115
vn -0.9238795325112866 0.38268343236508995 0
f 60//116 61//116 20//116
vn -0.9723699203976766 0.2334453638559053 0
f 20//117 61//117 21//117
vn -0.9723699203976766 0.2334453638559053 0
f 61//118 62//118 21//118
vn -0.996917333733128 0.07845909572784537 0
f 21//119 62//119 22//119
vn -0.996917333733128 0.07845909572784537 0
f 62//120 63//120 22//120
vn -0.9969173337331281 -0.0784590957278447 0
f 22//121 63//121 23//121
vn -0.9969173337331281 -0.0784590957278447 0
f 63//122 64//122 23//122
vn -0.9723699203976767 -0.23344536385590528 0
f 23//123 64//123 24//123
vn -0.9723699203976767 -0.23344536385590528 0
f 64//124 65//124 24//124
vn -0.9238795325112866 -0.38268343236509006 0
f 24//125 65//125 25//125
vn -0.9238795325112866 -0.38268343236509006 0
f 65//126 66//126 25//126
vn -0.8526401643540923 -0.5224985647159487 0
f 25//127 66//127 26//127
vn -0.8526401643540923 -0.5224985647159487 0
f 66//128 67//128 26//128
vn -0.7604059656000314 -0.6494480483301831 0
f 26//129 67//129 27//129
vn -0.7604059656000314 -0.6494480483301831 0
f 67//130 68//130 27//130
vn -0.6494480483301835 -0.7604059656000312 0
f 27//131 68//131 28//131
vn -0.6494480483301835 -0.7604059656000312 0
f 68//132 69//132 28//132
vn -0.5224985647159489 -0.8526401643540922 0
f 28//133 69//133 29//133
vn -0.5224985647159489 -0.8526401643540922 0
f 69//134 70//134 29//134
vn -0.38268343236508995 -0.9238795325112866 0
f 29//135 70//135 30//135
vn -0.38268343236508995 -0.9238795325112866 0
f 70//136 71//136 30//136
vn -0.2334453638559053 -0.9723699203976766 0
f 30//137 71//137 31//137
vn -0.2334453638559053 -0.9723699203976766 0
f 71//138 72//138 31//138
vn -0.07845909572784539 -0.996917333733128 0
f 31//139 72//139 32//139
vn -0.07845909572784539 -0.996917333733128 0
f 72//140 73//140 32//140
vn 0.07845909572784467 -0.996917333733128 0
f 32//141 73//141 33//141
vn 0.07845909572784467 -0.996917333733128 0
f 73//142 74//142 33//142
vn 0.23344536385590525 -0.9723699203976766 0
f 33//143 74//143 34//143
vn 0.23344536385590525 -0.9723699203976766 0
f 74//144 75//144 34//144
vn 0.3826834323650893 -0.9238795325112871 0
f 34//145 75//145 35//145
vn 0.3826834323650893 -0.9238795325112871 0
f 75//146 76//146 35//146
vn 0.5224985647159491 -0.8526401643540921 0
f 35//147 76//147 36//147
vn 0.5224985647159491 -0.8526401643540921 0
f 76//148 77//148 36//148
vn 0.6494480483301835 -0.7604059656000312 0
f 36//149 77//149 37//149
vn 0.6494480483301835 -0.7604059656000312 0
f 77//150 78//150 37//150
vn 0.7604059656000305 -0.6494480483301842 0
f 37//151 78//151 38//151
vn 0.7604059656000305 -0.6494480483301842 0
f 78//152 79//152 38//152
vn 0.8526401643540923 -0.5224985647159488 0
f 38//153 79//153 39//153
vn 0.8526401643540923 -0.5224985647159488 0
f 79//154 80//154 39//154
vn 0.9238795325112866 -0.38268343236508995 0
f 39//155 80//155 40//155
vn 0.9238795325112866 -0.38268343236508995 0
f 80//156 81//156 40//156
vn 0.9723699203976766 -0.23344536385590534 0
f 40//157 81//157 41//157
vn 0.9723699203976766 -0.23344536385590534 0
f 81//158 82//158 41//158
vn 0.996917333733128 -0.07845909572784525 0
f 41//159 82//159 2//159
vn 0.996917333733128 -0.07845909572784525 0
f 82//160 43//160 2//160
